<mxfile host="app.diagrams.net" modified="2022-03-16T12:51:53.576Z" agent="5.0 (Windows NT 10.0; Win64; x64) AppleWebKit/537.36 (KHTML, like Gecko) Chrome/99.0.4844.51 Safari/537.36 Edg/99.0.1150.36" etag="LII0K-qWhv7H6zR9INBP" version="17.1.3" type="github" pages="2">
  <diagram id="C5RBs43oDa-KdzZeNtuy" name="Page-1">
    <mxGraphModel dx="1422" dy="794" grid="1" gridSize="10" guides="1" tooltips="1" connect="1" arrows="1" fold="1" page="1" pageScale="1" pageWidth="827" pageHeight="1169" math="0" shadow="0">
      <root>
        <mxCell id="WIyWlLk6GJQsqaUBKTNV-0" />
        <mxCell id="WIyWlLk6GJQsqaUBKTNV-1" parent="WIyWlLk6GJQsqaUBKTNV-0" />
        <mxCell id="bWYdU8AJ63GBuWtK9qGN-11" style="edgeStyle=orthogonalEdgeStyle;rounded=0;orthogonalLoop=1;jettySize=auto;html=1;exitX=0.5;exitY=1;exitDx=0;exitDy=0;entryX=0.5;entryY=0;entryDx=0;entryDy=0;" edge="1" parent="WIyWlLk6GJQsqaUBKTNV-1" source="bWYdU8AJ63GBuWtK9qGN-0" target="bWYdU8AJ63GBuWtK9qGN-10">
          <mxGeometry relative="1" as="geometry" />
        </mxCell>
        <mxCell id="bWYdU8AJ63GBuWtK9qGN-0" value="start" style="ellipse;whiteSpace=wrap;html=1;" vertex="1" parent="WIyWlLk6GJQsqaUBKTNV-1">
          <mxGeometry x="220" y="30" width="60" height="60" as="geometry" />
        </mxCell>
        <mxCell id="AreEKT_aKlzEnph52LDv-12" style="edgeStyle=orthogonalEdgeStyle;rounded=0;orthogonalLoop=1;jettySize=auto;html=1;exitX=1;exitY=0.5;exitDx=0;exitDy=0;entryX=0;entryY=0.5;entryDx=0;entryDy=0;startArrow=none;" edge="1" parent="WIyWlLk6GJQsqaUBKTNV-1" source="bWYdU8AJ63GBuWtK9qGN-16" target="AreEKT_aKlzEnph52LDv-10">
          <mxGeometry relative="1" as="geometry" />
        </mxCell>
        <mxCell id="AreEKT_aKlzEnph52LDv-20" style="edgeStyle=orthogonalEdgeStyle;rounded=0;orthogonalLoop=1;jettySize=auto;html=1;exitX=0.5;exitY=1;exitDx=0;exitDy=0;entryX=0.5;entryY=0;entryDx=0;entryDy=0;startArrow=none;" edge="1" parent="WIyWlLk6GJQsqaUBKTNV-1" source="AreEKT_aKlzEnph52LDv-22" target="AreEKT_aKlzEnph52LDv-19">
          <mxGeometry relative="1" as="geometry" />
        </mxCell>
        <mxCell id="bWYdU8AJ63GBuWtK9qGN-2" value="nbrHrs&lt;br&gt;&amp;lt;&amp;gt;&lt;br&gt;0" style="rhombus;whiteSpace=wrap;html=1;" vertex="1" parent="WIyWlLk6GJQsqaUBKTNV-1">
          <mxGeometry x="185" y="430" width="130" height="130" as="geometry" />
        </mxCell>
        <mxCell id="bWYdU8AJ63GBuWtK9qGN-5" value="stop" style="ellipse;whiteSpace=wrap;html=1;" vertex="1" parent="WIyWlLk6GJQsqaUBKTNV-1">
          <mxGeometry x="220" y="710" width="60" height="60" as="geometry" />
        </mxCell>
        <mxCell id="AreEKT_aKlzEnph52LDv-43" style="edgeStyle=orthogonalEdgeStyle;rounded=0;orthogonalLoop=1;jettySize=auto;html=1;exitX=0.5;exitY=1;exitDx=0;exitDy=0;entryX=0.5;entryY=0;entryDx=0;entryDy=0;" edge="1" parent="WIyWlLk6GJQsqaUBKTNV-1" source="bWYdU8AJ63GBuWtK9qGN-10" target="AreEKT_aKlzEnph52LDv-8">
          <mxGeometry relative="1" as="geometry" />
        </mxCell>
        <mxCell id="bWYdU8AJ63GBuWtK9qGN-10" value="Declarations&lt;br&gt;&lt;span style=&quot;white-space: pre&quot;&gt;	&lt;/span&gt;num nbrHrs&lt;br&gt;&lt;span style=&quot;white-space: pre&quot;&gt;	&lt;/span&gt;num materialCost&lt;br&gt;&lt;span style=&quot;white-space: pre&quot;&gt;	&lt;/span&gt;num MATERIAL_MARKUP = 1.2&lt;br&gt;&lt;span style=&quot;white-space: pre&quot;&gt;	&lt;/span&gt;num LABOR_COST = 30&lt;br&gt;&lt;span style=&quot;white-space: pre&quot;&gt;	&lt;/span&gt;num jobCost&lt;br&gt;&lt;span style=&quot;white-space: pre&quot;&gt;	&lt;/span&gt;string HOURS_PROMPT = &quot;Please enter the number of hours:&quot;&lt;br&gt;&lt;span style=&quot;white-space: pre&quot;&gt;	&lt;/span&gt;string MATERIAL_PROMPT = &quot;Please enter the whole sale cost of the materials:&quot;&lt;br&gt;&lt;span style=&quot;white-space: pre&quot;&gt;	&lt;/span&gt;string END_OF_LINE = &quot;End of program&quot;" style="whiteSpace=wrap;html=1;align=left;shadow=0;rounded=0;glass=0;" vertex="1" parent="WIyWlLk6GJQsqaUBKTNV-1">
          <mxGeometry x="17.5" y="130" width="465" height="150" as="geometry" />
        </mxCell>
        <mxCell id="AreEKT_aKlzEnph52LDv-24" style="edgeStyle=orthogonalEdgeStyle;rounded=0;orthogonalLoop=1;jettySize=auto;html=1;exitX=0.5;exitY=1;exitDx=0;exitDy=0;" edge="1" parent="WIyWlLk6GJQsqaUBKTNV-1" source="AreEKT_aKlzEnph52LDv-0" target="AreEKT_aKlzEnph52LDv-5">
          <mxGeometry relative="1" as="geometry" />
        </mxCell>
        <mxCell id="AreEKT_aKlzEnph52LDv-0" value="housekeeping()" style="ellipse;whiteSpace=wrap;html=1;rounded=0;shadow=0;glass=0;" vertex="1" parent="WIyWlLk6GJQsqaUBKTNV-1">
          <mxGeometry x="650" y="40" width="120" height="60" as="geometry" />
        </mxCell>
        <mxCell id="AreEKT_aKlzEnph52LDv-1" value="return" style="ellipse;whiteSpace=wrap;html=1;rounded=0;shadow=0;glass=0;" vertex="1" parent="WIyWlLk6GJQsqaUBKTNV-1">
          <mxGeometry x="680" y="310" width="60" height="60" as="geometry" />
        </mxCell>
        <mxCell id="AreEKT_aKlzEnph52LDv-25" style="edgeStyle=orthogonalEdgeStyle;rounded=0;orthogonalLoop=1;jettySize=auto;html=1;exitX=0.5;exitY=1;exitDx=0;exitDy=0;entryX=0.5;entryY=0;entryDx=0;entryDy=0;" edge="1" parent="WIyWlLk6GJQsqaUBKTNV-1" source="AreEKT_aKlzEnph52LDv-5" target="AreEKT_aKlzEnph52LDv-7">
          <mxGeometry relative="1" as="geometry" />
        </mxCell>
        <mxCell id="AreEKT_aKlzEnph52LDv-5" value="output HOURS_PROMPT" style="shape=parallelogram;perimeter=parallelogramPerimeter;whiteSpace=wrap;html=1;fixedSize=1;rounded=0;shadow=0;glass=0;" vertex="1" parent="WIyWlLk6GJQsqaUBKTNV-1">
          <mxGeometry x="615" y="130" width="190" height="60" as="geometry" />
        </mxCell>
        <mxCell id="AreEKT_aKlzEnph52LDv-26" style="edgeStyle=orthogonalEdgeStyle;rounded=0;orthogonalLoop=1;jettySize=auto;html=1;exitX=0.5;exitY=1;exitDx=0;exitDy=0;entryX=0.5;entryY=0;entryDx=0;entryDy=0;" edge="1" parent="WIyWlLk6GJQsqaUBKTNV-1" source="AreEKT_aKlzEnph52LDv-7" target="AreEKT_aKlzEnph52LDv-1">
          <mxGeometry relative="1" as="geometry" />
        </mxCell>
        <mxCell id="AreEKT_aKlzEnph52LDv-7" value="input nbrHrs" style="shape=parallelogram;perimeter=parallelogramPerimeter;whiteSpace=wrap;html=1;fixedSize=1;rounded=0;shadow=0;glass=0;" vertex="1" parent="WIyWlLk6GJQsqaUBKTNV-1">
          <mxGeometry x="652.5" y="220" width="115" height="60" as="geometry" />
        </mxCell>
        <mxCell id="AreEKT_aKlzEnph52LDv-9" value="" style="edgeStyle=orthogonalEdgeStyle;rounded=0;orthogonalLoop=1;jettySize=auto;html=1;" edge="1" parent="WIyWlLk6GJQsqaUBKTNV-1" source="AreEKT_aKlzEnph52LDv-8" target="bWYdU8AJ63GBuWtK9qGN-2">
          <mxGeometry relative="1" as="geometry" />
        </mxCell>
        <mxCell id="AreEKT_aKlzEnph52LDv-8" value="housekeeping()" style="swimlane;rounded=0;shadow=0;glass=0;" vertex="1" parent="WIyWlLk6GJQsqaUBKTNV-1">
          <mxGeometry x="150" y="320" width="200" height="66.25" as="geometry" />
        </mxCell>
        <mxCell id="AreEKT_aKlzEnph52LDv-18" style="edgeStyle=orthogonalEdgeStyle;rounded=0;orthogonalLoop=1;jettySize=auto;html=1;exitX=0.5;exitY=0;exitDx=0;exitDy=0;entryX=0.5;entryY=0;entryDx=0;entryDy=0;" edge="1" parent="WIyWlLk6GJQsqaUBKTNV-1" source="AreEKT_aKlzEnph52LDv-10" target="bWYdU8AJ63GBuWtK9qGN-2">
          <mxGeometry relative="1" as="geometry">
            <Array as="points">
              <mxPoint x="500" y="410" />
              <mxPoint x="250" y="410" />
            </Array>
          </mxGeometry>
        </mxCell>
        <mxCell id="AreEKT_aKlzEnph52LDv-10" value="detailLoop()" style="swimlane;rounded=0;shadow=0;glass=0;" vertex="1" parent="WIyWlLk6GJQsqaUBKTNV-1">
          <mxGeometry x="400" y="460" width="200" height="70" as="geometry" />
        </mxCell>
        <mxCell id="bWYdU8AJ63GBuWtK9qGN-16" value="True" style="text;html=1;align=center;verticalAlign=middle;resizable=0;points=[];autosize=1;strokeColor=none;fillColor=none;" vertex="1" parent="WIyWlLk6GJQsqaUBKTNV-1">
          <mxGeometry x="330" y="485" width="40" height="20" as="geometry" />
        </mxCell>
        <mxCell id="AreEKT_aKlzEnph52LDv-14" value="" style="edgeStyle=orthogonalEdgeStyle;rounded=0;orthogonalLoop=1;jettySize=auto;html=1;exitX=1;exitY=0.5;exitDx=0;exitDy=0;entryX=0;entryY=0.5;entryDx=0;entryDy=0;endArrow=none;" edge="1" parent="WIyWlLk6GJQsqaUBKTNV-1" source="bWYdU8AJ63GBuWtK9qGN-2" target="bWYdU8AJ63GBuWtK9qGN-16">
          <mxGeometry relative="1" as="geometry">
            <mxPoint x="315" y="495" as="sourcePoint" />
            <mxPoint x="400" y="495" as="targetPoint" />
          </mxGeometry>
        </mxCell>
        <mxCell id="AreEKT_aKlzEnph52LDv-21" style="edgeStyle=orthogonalEdgeStyle;rounded=0;orthogonalLoop=1;jettySize=auto;html=1;exitX=0.5;exitY=1;exitDx=0;exitDy=0;" edge="1" parent="WIyWlLk6GJQsqaUBKTNV-1" source="AreEKT_aKlzEnph52LDv-19" target="bWYdU8AJ63GBuWtK9qGN-5">
          <mxGeometry relative="1" as="geometry" />
        </mxCell>
        <mxCell id="AreEKT_aKlzEnph52LDv-19" value="endofjob()" style="swimlane;rounded=0;shadow=0;glass=0;" vertex="1" parent="WIyWlLk6GJQsqaUBKTNV-1">
          <mxGeometry x="150" y="600" width="200" height="70" as="geometry" />
        </mxCell>
        <mxCell id="AreEKT_aKlzEnph52LDv-22" value="False" style="text;html=1;align=center;verticalAlign=middle;resizable=0;points=[];autosize=1;strokeColor=none;fillColor=none;" vertex="1" parent="WIyWlLk6GJQsqaUBKTNV-1">
          <mxGeometry x="230" y="574.5" width="40" height="20" as="geometry" />
        </mxCell>
        <mxCell id="AreEKT_aKlzEnph52LDv-23" value="" style="edgeStyle=orthogonalEdgeStyle;rounded=0;orthogonalLoop=1;jettySize=auto;html=1;exitX=0.5;exitY=1;exitDx=0;exitDy=0;entryX=0.5;entryY=0;entryDx=0;entryDy=0;endArrow=none;" edge="1" parent="WIyWlLk6GJQsqaUBKTNV-1" source="bWYdU8AJ63GBuWtK9qGN-2" target="AreEKT_aKlzEnph52LDv-22">
          <mxGeometry relative="1" as="geometry">
            <mxPoint x="250" y="560" as="sourcePoint" />
            <mxPoint x="250" y="600" as="targetPoint" />
          </mxGeometry>
        </mxCell>
        <mxCell id="AreEKT_aKlzEnph52LDv-28" style="edgeStyle=orthogonalEdgeStyle;rounded=0;orthogonalLoop=1;jettySize=auto;html=1;exitX=0.5;exitY=1;exitDx=0;exitDy=0;" edge="1" source="AreEKT_aKlzEnph52LDv-29" target="AreEKT_aKlzEnph52LDv-32" parent="WIyWlLk6GJQsqaUBKTNV-1">
          <mxGeometry relative="1" as="geometry" />
        </mxCell>
        <mxCell id="AreEKT_aKlzEnph52LDv-29" value="detailLoop()" style="ellipse;whiteSpace=wrap;html=1;rounded=0;shadow=0;glass=0;" vertex="1" parent="WIyWlLk6GJQsqaUBKTNV-1">
          <mxGeometry x="987.5" y="40" width="75" height="60" as="geometry" />
        </mxCell>
        <mxCell id="AreEKT_aKlzEnph52LDv-31" style="edgeStyle=orthogonalEdgeStyle;rounded=0;orthogonalLoop=1;jettySize=auto;html=1;exitX=0.5;exitY=1;exitDx=0;exitDy=0;entryX=0.5;entryY=0;entryDx=0;entryDy=0;" edge="1" source="AreEKT_aKlzEnph52LDv-32" target="AreEKT_aKlzEnph52LDv-34" parent="WIyWlLk6GJQsqaUBKTNV-1">
          <mxGeometry relative="1" as="geometry" />
        </mxCell>
        <mxCell id="AreEKT_aKlzEnph52LDv-32" value="output MATERIAL_PROMPT" style="shape=parallelogram;perimeter=parallelogramPerimeter;whiteSpace=wrap;html=1;fixedSize=1;rounded=0;shadow=0;glass=0;" vertex="1" parent="WIyWlLk6GJQsqaUBKTNV-1">
          <mxGeometry x="930" y="130" width="190" height="60" as="geometry" />
        </mxCell>
        <mxCell id="AreEKT_aKlzEnph52LDv-33" style="edgeStyle=orthogonalEdgeStyle;rounded=0;orthogonalLoop=1;jettySize=auto;html=1;exitX=0.5;exitY=1;exitDx=0;exitDy=0;entryX=0.5;entryY=0;entryDx=0;entryDy=0;" edge="1" source="AreEKT_aKlzEnph52LDv-34" parent="WIyWlLk6GJQsqaUBKTNV-1">
          <mxGeometry relative="1" as="geometry">
            <mxPoint x="1025" y="310" as="targetPoint" />
          </mxGeometry>
        </mxCell>
        <mxCell id="AreEKT_aKlzEnph52LDv-34" value="input materialCost" style="shape=parallelogram;perimeter=parallelogramPerimeter;whiteSpace=wrap;html=1;fixedSize=1;rounded=0;shadow=0;glass=0;" vertex="1" parent="WIyWlLk6GJQsqaUBKTNV-1">
          <mxGeometry x="953.75" y="220" width="142.5" height="60" as="geometry" />
        </mxCell>
        <mxCell id="AreEKT_aKlzEnph52LDv-40" style="edgeStyle=orthogonalEdgeStyle;rounded=0;orthogonalLoop=1;jettySize=auto;html=1;exitX=0.5;exitY=1;exitDx=0;exitDy=0;entryX=0.5;entryY=0;entryDx=0;entryDy=0;" edge="1" parent="WIyWlLk6GJQsqaUBKTNV-1" source="AreEKT_aKlzEnph52LDv-35" target="AreEKT_aKlzEnph52LDv-36">
          <mxGeometry relative="1" as="geometry" />
        </mxCell>
        <mxCell id="AreEKT_aKlzEnph52LDv-35" value="set jobCost = (nbrHrs * LABOR_COST) + (materialCost * HOURLY_RATE)" style="whiteSpace=wrap;html=1;rounded=0;shadow=0;glass=0;" vertex="1" parent="WIyWlLk6GJQsqaUBKTNV-1">
          <mxGeometry x="815" y="310" width="420" height="60" as="geometry" />
        </mxCell>
        <mxCell id="AreEKT_aKlzEnph52LDv-55" value="" style="edgeStyle=orthogonalEdgeStyle;rounded=0;orthogonalLoop=1;jettySize=auto;html=1;" edge="1" parent="WIyWlLk6GJQsqaUBKTNV-1" source="AreEKT_aKlzEnph52LDv-36" target="AreEKT_aKlzEnph52LDv-53">
          <mxGeometry relative="1" as="geometry" />
        </mxCell>
        <mxCell id="AreEKT_aKlzEnph52LDv-36" value="output &quot;Job cost: &quot;, jobCost" style="shape=parallelogram;perimeter=parallelogramPerimeter;whiteSpace=wrap;html=1;fixedSize=1;rounded=0;shadow=0;glass=0;" vertex="1" parent="WIyWlLk6GJQsqaUBKTNV-1">
          <mxGeometry x="930" y="400" width="190" height="60" as="geometry" />
        </mxCell>
        <mxCell id="AreEKT_aKlzEnph52LDv-39" value="return" style="ellipse;whiteSpace=wrap;html=1;rounded=0;shadow=0;glass=0;" vertex="1" parent="WIyWlLk6GJQsqaUBKTNV-1">
          <mxGeometry x="995" y="674.5" width="60" height="60" as="geometry" />
        </mxCell>
        <mxCell id="AreEKT_aKlzEnph52LDv-44" style="edgeStyle=orthogonalEdgeStyle;rounded=0;orthogonalLoop=1;jettySize=auto;html=1;exitX=0.5;exitY=1;exitDx=0;exitDy=0;" edge="1" source="AreEKT_aKlzEnph52LDv-45" target="AreEKT_aKlzEnph52LDv-50" parent="WIyWlLk6GJQsqaUBKTNV-1">
          <mxGeometry relative="1" as="geometry" />
        </mxCell>
        <mxCell id="AreEKT_aKlzEnph52LDv-45" value="endofjob()" style="ellipse;whiteSpace=wrap;html=1;rounded=0;shadow=0;glass=0;" vertex="1" parent="WIyWlLk6GJQsqaUBKTNV-1">
          <mxGeometry x="1298.5" y="40" width="75" height="60" as="geometry" />
        </mxCell>
        <mxCell id="AreEKT_aKlzEnph52LDv-46" value="return" style="ellipse;whiteSpace=wrap;html=1;rounded=0;shadow=0;glass=0;" vertex="1" parent="WIyWlLk6GJQsqaUBKTNV-1">
          <mxGeometry x="1306" y="220" width="60" height="60" as="geometry" />
        </mxCell>
        <mxCell id="AreEKT_aKlzEnph52LDv-51" style="edgeStyle=orthogonalEdgeStyle;rounded=0;orthogonalLoop=1;jettySize=auto;html=1;exitX=0.5;exitY=1;exitDx=0;exitDy=0;entryX=0.5;entryY=0;entryDx=0;entryDy=0;" edge="1" parent="WIyWlLk6GJQsqaUBKTNV-1" source="AreEKT_aKlzEnph52LDv-50" target="AreEKT_aKlzEnph52LDv-46">
          <mxGeometry relative="1" as="geometry" />
        </mxCell>
        <mxCell id="AreEKT_aKlzEnph52LDv-50" value="output END_OF_LINE" style="shape=parallelogram;perimeter=parallelogramPerimeter;whiteSpace=wrap;html=1;fixedSize=1;rounded=0;shadow=0;glass=0;" vertex="1" parent="WIyWlLk6GJQsqaUBKTNV-1">
          <mxGeometry x="1241" y="130" width="190" height="60" as="geometry" />
        </mxCell>
        <mxCell id="AreEKT_aKlzEnph52LDv-57" value="" style="edgeStyle=orthogonalEdgeStyle;rounded=0;orthogonalLoop=1;jettySize=auto;html=1;" edge="1" parent="WIyWlLk6GJQsqaUBKTNV-1" source="AreEKT_aKlzEnph52LDv-52" target="AreEKT_aKlzEnph52LDv-39">
          <mxGeometry relative="1" as="geometry" />
        </mxCell>
        <mxCell id="AreEKT_aKlzEnph52LDv-52" value="input nbrHrs" style="shape=parallelogram;perimeter=parallelogramPerimeter;whiteSpace=wrap;html=1;fixedSize=1;rounded=0;shadow=0;glass=0;" vertex="1" parent="WIyWlLk6GJQsqaUBKTNV-1">
          <mxGeometry x="953.75" y="580" width="142.5" height="60" as="geometry" />
        </mxCell>
        <mxCell id="AreEKT_aKlzEnph52LDv-56" value="" style="edgeStyle=orthogonalEdgeStyle;rounded=0;orthogonalLoop=1;jettySize=auto;html=1;" edge="1" parent="WIyWlLk6GJQsqaUBKTNV-1" source="AreEKT_aKlzEnph52LDv-53" target="AreEKT_aKlzEnph52LDv-52">
          <mxGeometry relative="1" as="geometry" />
        </mxCell>
        <mxCell id="AreEKT_aKlzEnph52LDv-53" value="output HOURS_PROMPT" style="shape=parallelogram;perimeter=parallelogramPerimeter;whiteSpace=wrap;html=1;fixedSize=1;rounded=0;shadow=0;glass=0;" vertex="1" parent="WIyWlLk6GJQsqaUBKTNV-1">
          <mxGeometry x="930" y="490" width="190" height="60" as="geometry" />
        </mxCell>
      </root>
    </mxGraphModel>
  </diagram>
  <diagram id="a9MuCD7pgEdJrheGvbNs" name="Page-2">
    <mxGraphModel dx="1422" dy="794" grid="1" gridSize="10" guides="1" tooltips="1" connect="1" arrows="1" fold="1" page="1" pageScale="1" pageWidth="850" pageHeight="1100" math="0" shadow="0">
      <root>
        <mxCell id="Q9GVpv3YtisMncHmaNSU-0" />
        <mxCell id="Q9GVpv3YtisMncHmaNSU-1" parent="Q9GVpv3YtisMncHmaNSU-0" />
      </root>
    </mxGraphModel>
  </diagram>
</mxfile>
